# xmcd CD database file
#
# Track frame offsets:
#	182
#	16317
#	29515
#	44882
#	56430
#	70290
#	81017
#	98380
#	116490
#	127830
#	146505
#	163162
#
# Disc length: 2344 seconds
#
# Revision: 5
# Processed by: cddbd v1.5.2PL0 Copyright (c) Steve Scherf et al.
# Submitted via: CDex 1.51
#
DISCID=9c09260c
DTITLE=Alison Krauss and Union Station - Two Highways
DYEAR=1989
DGENRE=Bluegrass
TTITLE0=Two Highways
TTITLE1=I'm Alone Again
TTITLE2=Wild Bill Jones
TTITLE3=Beaumont Rag
TTITLE4=Heaven's Bright Shore
TTITLE5=Love You In Vain
TTITLE6=Here Comes Goodbye
TTITLE7=As Lovely as You
TTITLE8=Windy City Rag
TTITLE9=Lord Don't Forsake Me
TTITLE10=Teardrops Will Kiss the Morning Dew
TTITLE11=Midnight Rider
EXTD=YEAR: 1989
EXTT0=
EXTT1=
EXTT2=
EXTT3=
EXTT4=
EXTT5=
EXTT6=
EXTT7=
EXTT8=
EXTT9=
EXTT10=
EXTT11=
PLAYORDER=
